<svg xmlns="http://www.w3.org/2000/svg" width="256" height="128" viewBox="0 0 256 128" shape-rendering="crispEdges">
  <!-- Ruins tileset 256×128 = 4×2 @ 64px. Gray stone + broken walls + weeds. -->
  <defs>
    <linearGradient id="ru_s" x1="0" y1="0" x2="0" y2="1">
      <stop offset="0%" stop-color="#9e988a"/><stop offset="100%" stop-color="#5e5848"/>
    </linearGradient>
    <linearGradient id="ru_s2" x1="0" y1="0" x2="0" y2="1">
      <stop offset="0%" stop-color="#b0a898"/><stop offset="100%" stop-color="#6a604e"/>
    </linearGradient>
  </defs>

  <!-- Row 0 -->
  <!-- (0,0) cracked pavement -->
  <g>
    <rect width="64" height="64" fill="url(#ru_s)"/>
    <g stroke="#3a3428" stroke-width="1">
      <line x1="0" y1="16" x2="64" y2="18"/>
      <line x1="0" y1="34" x2="64" y2="32"/>
      <line x1="0" y1="50" x2="64" y2="52"/>
      <line x1="18" y1="0" x2="20" y2="64"/>
      <line x1="42" y1="0" x2="44" y2="64"/>
    </g>
    <g stroke="#2a2418" stroke-width="0.8" fill="none">
      <path d="M10 22 L14 28 L12 34"/><path d="M48 38 L52 44"/>
    </g>
  </g>
  <!-- (1,0) cobblestone -->
  <g transform="translate(64,0)">
    <rect width="64" height="64" fill="url(#ru_s2)"/>
    <g stroke="#3a3428" stroke-width="1" fill="#8a8272">
      <rect x="4"  y="4"  width="14" height="12" rx="2"/>
      <rect x="22" y="6"  width="14" height="14" rx="2"/>
      <rect x="40" y="4"  width="14" height="12" rx="2"/>
      <rect x="6"  y="22" width="14" height="14" rx="2"/>
      <rect x="24" y="24" width="14" height="12" rx="2"/>
      <rect x="42" y="22" width="14" height="14" rx="2"/>
      <rect x="4"  y="42" width="14" height="14" rx="2"/>
      <rect x="22" y="42" width="14" height="14" rx="2"/>
      <rect x="40" y="42" width="14" height="14" rx="2"/>
    </g>
  </g>
  <!-- (2,0) rubble -->
  <g transform="translate(128,0)">
    <rect width="64" height="64" fill="url(#ru_s)"/>
    <g stroke="#2a2418" stroke-width="1.2">
      <polygon points="10,18 24,12 28,24 18,30" fill="#7a7262"/>
      <polygon points="38,30 50,22 56,34 44,40" fill="#8a8272"/>
      <polygon points="14,42 24,38 30,48 20,52" fill="#7a7262"/>
      <polygon points="42,46 52,42 56,54 46,56" fill="#8a8272"/>
      <circle cx="34" cy="14" r="3" fill="#5a5442"/>
      <circle cx="8" cy="52" r="2.5" fill="#5a5442"/>
    </g>
  </g>
  <!-- (3,0) mossy floor -->
  <g transform="translate(192,0)">
    <rect width="64" height="64" fill="url(#ru_s)"/>
    <g fill="#5a7236" opacity="0.75" stroke="#2a3818" stroke-width="0.8">
      <circle cx="12" cy="20" r="4"/><circle cx="40" cy="28" r="5"/>
      <circle cx="52" cy="14" r="3"/><circle cx="22" cy="44" r="4"/>
      <circle cx="48" cy="50" r="3.5"/>
    </g>
    <g stroke="#3a3428" stroke-width="1">
      <line x1="0" y1="34" x2="64" y2="32"/><line x1="30" y1="0" x2="32" y2="64"/>
    </g>
  </g>

  <!-- Row 1 -->
  <!-- (0,1) broken column -->
  <g transform="translate(0,64)">
    <rect width="64" height="64" fill="url(#ru_s)"/>
    <g stroke="#2a2418" stroke-width="1.5">
      <rect x="22" y="22" width="20" height="28" fill="#bab0a0"/>
      <ellipse cx="32" cy="22" rx="10" ry="3" fill="#d8ccb8"/>
      <rect x="18" y="50" width="28" height="6" fill="#8a8272"/>
      <line x1="26" y1="22" x2="26" y2="50" stroke="#6a604a" stroke-width="1"/>
      <line x1="32" y1="22" x2="32" y2="50" stroke="#6a604a" stroke-width="1"/>
      <line x1="38" y1="22" x2="38" y2="50" stroke="#6a604a" stroke-width="1"/>
    </g>
    <polygon points="42,30 58,14 62,18 46,34" fill="#8a8272" stroke="#2a2418" stroke-width="1.2"/>
  </g>
  <!-- (1,1) broken wall -->
  <g transform="translate(64,64)">
    <rect width="64" height="64" fill="url(#ru_s)"/>
    <g stroke="#2a2418" stroke-width="1.2" fill="#8a8272">
      <rect x="6"  y="24" width="14" height="12"/>
      <rect x="6"  y="36" width="14" height="12"/>
      <rect x="20" y="30" width="14" height="12"/>
      <rect x="20" y="42" width="14" height="12"/>
      <rect x="34" y="36" width="14" height="12"/>
      <rect x="48" y="40" width="12" height="12"/>
    </g>
    <g stroke="#4a3e2a" stroke-width="0.8">
      <line x1="6"  y1="30" x2="20" y2="30"/>
      <line x1="20" y1="36" x2="34" y2="36"/>
      <line x1="34" y1="42" x2="48" y2="42"/>
    </g>
  </g>
  <!-- (2,1) stone head / idol -->
  <g transform="translate(128,64)">
    <rect width="64" height="64" fill="url(#ru_s)"/>
    <g stroke="#2a2418" stroke-width="1.5">
      <ellipse cx="32" cy="34" rx="18" ry="22" fill="#9a8e78"/>
      <ellipse cx="26" cy="30" rx="2.5" ry="4" fill="#1e1208"/>
      <ellipse cx="38" cy="30" rx="2.5" ry="4" fill="#1e1208"/>
      <path d="M24 44 Q32 48 40 44" fill="none" stroke="#1e1208" stroke-width="1.5"/>
      <!-- headdress -->
      <path d="M14 24 Q32 8 50 24" fill="#b0a690" stroke="#2a2418"/>
      <line x1="22" y1="18" x2="22" y2="28" stroke="#6a604a"/>
      <line x1="32" y1="12" x2="32" y2="24" stroke="#6a604a"/>
      <line x1="42" y1="18" x2="42" y2="28" stroke="#6a604a"/>
    </g>
  </g>
  <!-- (3,1) weeds / bramble -->
  <g transform="translate(192,64)">
    <rect width="64" height="64" fill="url(#ru_s)"/>
    <g stroke="#2a3818" stroke-width="1.5" fill="none">
      <path d="M10 58 Q14 40 10 20"/>
      <path d="M10 58 Q6 42 0 30"/>
      <path d="M30 58 Q34 38 30 18"/>
      <path d="M30 58 Q26 44 20 32"/>
      <path d="M30 58 Q38 44 44 34"/>
      <path d="M54 58 Q58 42 54 24"/>
    </g>
    <g fill="#c84a3a" stroke="#3a1a0e" stroke-width="0.8">
      <circle cx="8" cy="22" r="2"/><circle cx="28" cy="20" r="2"/>
      <circle cx="40" cy="34" r="1.8"/><circle cx="54" cy="26" r="2"/>
    </g>
  </g>
</svg>
