<svg xmlns="http://www.w3.org/2000/svg" viewBox="0 0 256 256" width="256" height="256">
  <defs>
    <radialGradient id="h3MBg" cx="50%" cy="50%" r="70%">
      <stop offset="0%" stop-color="#d4a068"/>
      <stop offset="100%" stop-color="#6a4018"/>
    </radialGradient>
  </defs>
  <rect width="256" height="256" fill="url(#h3MBg)"/>
  <ellipse cx="128" cy="215" rx="55" ry="10" fill="#2a1a08" opacity="0.5"/>

  <!-- ORC top-down, muscular, green -->
  <!-- brown leather kilt -->
  <path d="M88 160 Q128 175 168 160 L172 205 Q128 215 84 205 Z" fill="#6a3a14" stroke="#2a1a08" stroke-width="2"/>
  <path d="M100 170 L100 200 M120 172 L120 205 M140 172 L140 205 M160 170 L160 200" stroke="#2a1a08" stroke-width="1.2"/>
  <!-- green shoulders/arms -->
  <ellipse cx="78" cy="130" rx="20" ry="22" fill="#4a8a2a" stroke="#1a3a06" stroke-width="2"/>
  <ellipse cx="178" cy="130" rx="20" ry="22" fill="#4a8a2a" stroke="#1a3a06" stroke-width="2"/>
  <!-- chest -->
  <path d="M98 120 Q128 108 158 120 L162 168 Q128 178 94 168 Z" fill="#5ca232" stroke="#1a3a06" stroke-width="2"/>
  <!-- pecs highlight -->
  <path d="M108 128 Q128 122 148 128 L148 155 Q128 160 108 155 Z" fill="#7cc442" opacity="0.7"/>
  <line x1="128" y1="120" x2="128" y2="168" stroke="#1a3a06" stroke-width="1.2"/>
  <!-- head -->
  <ellipse cx="128" cy="96" rx="22" ry="20" fill="#4a8a2a" stroke="#1a3a06" stroke-width="2"/>
  <!-- tusks -->
  <polygon points="118,108 116,118 120,116" fill="#f0ecdc" stroke="#2a1a08" stroke-width="1"/>
  <polygon points="138,108 140,118 136,116" fill="#f0ecdc" stroke="#2a1a08" stroke-width="1"/>
  <!-- eyes red -->
  <ellipse cx="120" cy="94" rx="3" ry="2.5" fill="#fff6a8"/>
  <circle cx="121" cy="94" r="1.5" fill="#c42020"/>
  <ellipse cx="136" cy="94" rx="3" ry="2.5" fill="#fff6a8"/>
  <circle cx="135" cy="94" r="1.5" fill="#c42020"/>
  <!-- scowl -->
  <path d="M118 102 Q128 100 138 102" stroke="#1a3a06" stroke-width="1.5" fill="none"/>
  <!-- spiked club (huge, h3 style) -->
  <rect x="192" y="60" width="10" height="110" fill="#6a3a14" stroke="#2a1a08" stroke-width="1.5" transform="rotate(15 197 115)"/>
  <ellipse cx="210" cy="50" rx="22" ry="18" fill="#8a6230" stroke="#2a1a08" stroke-width="2"/>
  <polygon points="200,34 204,40 197,42" fill="#4a443a" stroke="#2a1a08" stroke-width="1"/>
  <polygon points="222,34 218,42 226,44" fill="#4a443a" stroke="#2a1a08" stroke-width="1"/>
  <polygon points="212,32 214,40 208,40" fill="#4a443a" stroke="#2a1a08" stroke-width="1"/>

  <text x="128" y="248" text-anchor="middle" font-family="serif" font-size="10" fill="#1a3a06">homm3_bright · orc</text>
</svg>
