<svg xmlns="http://www.w3.org/2000/svg" width="256" height="384" viewBox="0 0 256 384" shape-rendering="geometricPrecision">
  <!-- player_healer — HoMM3 4x6 sprite sheet. 64px frame, 256×384. R5u skeleton.
       row 0 walk up / 1 walk left / 2 walk down / 3 walk right / 4 cast heal / 5 death
       Palette: 白袍 #f4efe2 / 金边 #ffd966 / 绿十字 #4a9a3a / 金杖 + 蓝宝石 #5aa5d8 /
                 皮肤 #e8cba0 / 头巾金环 #ffd700 / 神圣光 #fff4c8 -->
  <defs>
    <linearGradient id="hRobe" x1="0" y1="0" x2="0" y2="1">
      <stop offset="0%" stop-color="#fcf5e6"/>
      <stop offset="100%" stop-color="#c8bb9a"/>
    </linearGradient>
    <linearGradient id="hStaff" x1="0" y1="0" x2="0" y2="1">
      <stop offset="0%" stop-color="#fff4c8"/>
      <stop offset="100%" stop-color="#8a5e18"/>
    </linearGradient>
    <radialGradient id="hGem" cx="50%" cy="40%" r="50%">
      <stop offset="0%" stop-color="#c0e4ff"/>
      <stop offset="100%" stop-color="#1a4a7a"/>
    </radialGradient>
    <radialGradient id="hGlow" cx="50%" cy="50%" r="50%">
      <stop offset="0%" stop-color="#fff4c8" stop-opacity="0.85"/>
      <stop offset="100%" stop-color="#fff4c8" stop-opacity="0"/>
    </radialGradient>
  </defs>

  <style>
    .shadow { fill: #000; opacity: 0.4; }
    .robe   { fill: url(#hRobe); stroke: #6a5a38; stroke-width: 1.2; stroke-linejoin: round; }
    .trim   { fill: #ffd966; stroke: #3a2208; stroke-width: 1; }
    .skin   { fill: #e8cba0; stroke: #3a1a08; stroke-width: 1; }
    .boot   { fill: #5a3a1a; stroke: #000; stroke-width: 1; }
    .staff  { fill: url(#hStaff); stroke: #3a2208; stroke-width: 1; }
    .gem    { fill: url(#hGem); stroke: #1a4a7a; stroke-width: 1.2; }
    .cross  { fill: #4a9a3a; stroke: #1e3a14; stroke-width: 1; }
    .halo   { fill: #ffd700; opacity: 0.7; }
    .eye    { fill: #3a6a8a; }
    .glow   { fill: url(#hGlow); }
  </style>

  <!-- ============ ROW 0 : WALK UP (背面) ============ -->
  <g transform="translate(0,0)">
    <ellipse cx="32" cy="58" rx="14" ry="3" class="shadow"/>
    <rect x="22" y="48" width="8" height="10" class="boot"/>
    <rect x="34" y="48" width="8" height="10" class="boot"/>
    <path d="M14 22 Q14 48 16 58 L48 58 Q50 48 50 22 L42 18 L22 18 Z" class="robe"/>
    <rect x="14" y="56" width="36" height="2" class="trim"/>
    <circle cx="32" cy="14" r="9" class="robe"/>
    <ellipse cx="32" cy="10" rx="11" ry="4" class="trim"/>
    <!-- staff on right side -->
    <rect x="48" y="12" width="2.5" height="44" class="staff"/>
    <circle cx="49" cy="12" r="3.5" class="gem"/>
  </g>
  <g transform="translate(64,0)">
    <ellipse cx="32" cy="58" rx="14" ry="3" class="shadow"/>
    <rect x="22" y="50" width="8" height="10" class="boot"/>
    <rect x="34" y="46" width="8" height="10" class="boot"/>
    <path d="M14 22 Q14 48 16 58 L48 58 Q50 48 50 22 L42 18 L22 18 Z" class="robe"/>
    <rect x="14" y="56" width="36" height="2" class="trim"/>
    <circle cx="32" cy="14" r="9" class="robe"/>
    <ellipse cx="32" cy="10" rx="11" ry="4" class="trim"/>
    <rect x="48" y="12" width="2.5" height="44" class="staff"/>
    <circle cx="49" cy="12" r="3.5" class="gem"/>
  </g>
  <g transform="translate(128,0)">
    <ellipse cx="32" cy="58" rx="14" ry="3" class="shadow"/>
    <rect x="22" y="48" width="8" height="10" class="boot"/>
    <rect x="34" y="48" width="8" height="10" class="boot"/>
    <path d="M14 22 Q14 48 16 58 L48 58 Q50 48 50 22 L42 18 L22 18 Z" class="robe"/>
    <rect x="14" y="56" width="36" height="2" class="trim"/>
    <circle cx="32" cy="14" r="9" class="robe"/>
    <ellipse cx="32" cy="10" rx="11" ry="4" class="trim"/>
    <rect x="48" y="12" width="2.5" height="44" class="staff"/>
    <circle cx="49" cy="12" r="3.5" class="gem"/>
  </g>
  <g transform="translate(192,0)">
    <ellipse cx="32" cy="58" rx="14" ry="3" class="shadow"/>
    <rect x="22" y="46" width="8" height="10" class="boot"/>
    <rect x="34" y="50" width="8" height="10" class="boot"/>
    <path d="M14 22 Q14 48 16 58 L48 58 Q50 48 50 22 L42 18 L22 18 Z" class="robe"/>
    <rect x="14" y="56" width="36" height="2" class="trim"/>
    <circle cx="32" cy="14" r="9" class="robe"/>
    <ellipse cx="32" cy="10" rx="11" ry="4" class="trim"/>
    <rect x="48" y="12" width="2.5" height="44" class="staff"/>
    <circle cx="49" cy="12" r="3.5" class="gem"/>
  </g>

  <!-- ============ ROW 1 : WALK LEFT (侧面) ============ -->
  <g transform="translate(0,64)">
    <ellipse cx="32" cy="58" rx="13" ry="3" class="shadow"/>
    <rect x="26" y="48" width="7" height="10" class="boot"/>
    <rect x="32" y="46" width="7" height="12" class="boot"/>
    <path d="M22 22 Q18 48 20 58 L44 58 Q44 48 44 22 Q40 14 32 14 Q24 14 22 22 Z" class="robe"/>
    <rect x="20" y="56" width="24" height="2" class="trim"/>
    <circle cx="28" cy="14" r="9" class="skin"/>
    <ellipse cx="28" cy="10" rx="10" ry="4" class="trim"/>
    <rect x="10" y="18" width="2.5" height="40" class="staff" transform="rotate(-10 11 38)"/>
    <circle cx="6" cy="16" r="3.5" class="gem"/>
    <circle cx="24" cy="15" r="1.2" class="eye"/>
  </g>
  <g transform="translate(64,64)">
    <ellipse cx="32" cy="58" rx="13" ry="3" class="shadow"/>
    <rect x="24" y="46" width="7" height="12" class="boot"/>
    <rect x="34" y="50" width="7" height="10" class="boot"/>
    <path d="M22 22 Q18 48 20 58 L44 58 Q44 48 44 22 Q40 14 32 14 Q24 14 22 22 Z" class="robe"/>
    <rect x="20" y="56" width="24" height="2" class="trim"/>
    <circle cx="28" cy="14" r="9" class="skin"/>
    <ellipse cx="28" cy="10" rx="10" ry="4" class="trim"/>
    <rect x="10" y="18" width="2.5" height="40" class="staff" transform="rotate(-10 11 38)"/>
    <circle cx="6" cy="16" r="3.5" class="gem"/>
    <circle cx="24" cy="15" r="1.2" class="eye"/>
  </g>
  <g transform="translate(128,64)">
    <ellipse cx="32" cy="58" rx="13" ry="3" class="shadow"/>
    <rect x="26" y="48" width="7" height="10" class="boot"/>
    <rect x="32" y="46" width="7" height="12" class="boot"/>
    <path d="M22 22 Q18 48 20 58 L44 58 Q44 48 44 22 Q40 14 32 14 Q24 14 22 22 Z" class="robe"/>
    <rect x="20" y="56" width="24" height="2" class="trim"/>
    <circle cx="28" cy="14" r="9" class="skin"/>
    <ellipse cx="28" cy="10" rx="10" ry="4" class="trim"/>
    <rect x="10" y="18" width="2.5" height="40" class="staff" transform="rotate(-10 11 38)"/>
    <circle cx="6" cy="16" r="3.5" class="gem"/>
    <circle cx="24" cy="15" r="1.2" class="eye"/>
  </g>
  <g transform="translate(192,64)">
    <ellipse cx="32" cy="58" rx="13" ry="3" class="shadow"/>
    <rect x="24" y="46" width="7" height="12" class="boot"/>
    <rect x="34" y="50" width="7" height="10" class="boot"/>
    <path d="M22 22 Q18 48 20 58 L44 58 Q44 48 44 22 Q40 14 32 14 Q24 14 22 22 Z" class="robe"/>
    <rect x="20" y="56" width="24" height="2" class="trim"/>
    <circle cx="28" cy="14" r="9" class="skin"/>
    <ellipse cx="28" cy="10" rx="10" ry="4" class="trim"/>
    <rect x="10" y="18" width="2.5" height="40" class="staff" transform="rotate(-10 11 38)"/>
    <circle cx="6" cy="16" r="3.5" class="gem"/>
    <circle cx="24" cy="15" r="1.2" class="eye"/>
  </g>

  <!-- ============ ROW 2 : WALK DOWN (主观角度，最详) ============ -->
  <g transform="translate(0,128)">
    <ellipse cx="32" cy="58" rx="14" ry="3" class="shadow"/>
    <rect x="22" y="48" width="8" height="10" class="boot"/>
    <rect x="34" y="48" width="8" height="10" class="boot"/>
    <!-- robe body flared -->
    <path d="M14 22 Q14 48 16 58 L48 58 Q50 48 50 22 L42 18 L22 18 Z" class="robe"/>
    <rect x="14" y="56" width="36" height="2" class="trim"/>
    <!-- chest green cross -->
    <rect x="28" y="26" width="8" height="18" class="cross"/>
    <rect x="24" y="30" width="16" height="8" class="cross"/>
    <!-- head + halo -->
    <ellipse cx="32" cy="6" rx="14" ry="3" class="halo"/>
    <circle cx="32" cy="14" r="9" class="skin"/>
    <!-- golden headband -->
    <rect x="22" y="11" width="20" height="3" class="trim"/>
    <!-- eyes + mouth -->
    <circle cx="28" cy="16" r="1.2" class="eye"/>
    <circle cx="36" cy="16" r="1.2" class="eye"/>
    <path d="M30 20 Q32 21 34 20" stroke="#6a3a1a" stroke-width="0.8" fill="none"/>
    <!-- right hand holds staff -->
    <rect x="48" y="14" width="2.5" height="40" class="staff"/>
    <circle cx="49" cy="12" r="4" class="gem"/>
    <!-- gem shimmer -->
    <circle cx="48" cy="11" r="1" fill="#fff" opacity="0.85"/>
    <!-- gem glow -->
    <circle cx="49" cy="12" r="8" class="glow"/>
    <!-- belt -->
    <rect x="18" y="40" width="28" height="3" fill="#8a5e18" stroke="#3a2208" stroke-width="0.6"/>
    <circle cx="32" cy="41.5" r="1.5" fill="#ffd966" stroke="#3a2208" stroke-width="0.6"/>
  </g>
  <g transform="translate(64,128)">
    <ellipse cx="32" cy="58" rx="14" ry="3" class="shadow"/>
    <rect x="22" y="50" width="8" height="10" class="boot"/>
    <rect x="34" y="46" width="8" height="10" class="boot"/>
    <path d="M14 22 Q14 48 16 58 L48 58 Q50 48 50 22 L42 18 L22 18 Z" class="robe"/>
    <rect x="14" y="56" width="36" height="2" class="trim"/>
    <rect x="28" y="26" width="8" height="18" class="cross"/>
    <rect x="24" y="30" width="16" height="8" class="cross"/>
    <ellipse cx="32" cy="6" rx="14" ry="3" class="halo"/>
    <circle cx="32" cy="14" r="9" class="skin"/>
    <rect x="22" y="11" width="20" height="3" class="trim"/>
    <circle cx="28" cy="16" r="1.2" class="eye"/>
    <circle cx="36" cy="16" r="1.2" class="eye"/>
    <rect x="48" y="14" width="2.5" height="40" class="staff"/>
    <circle cx="49" cy="12" r="4" class="gem"/>
    <circle cx="49" cy="12" r="8" class="glow"/>
    <rect x="18" y="40" width="28" height="3" fill="#8a5e18" stroke="#3a2208" stroke-width="0.6"/>
  </g>
  <g transform="translate(128,128)">
    <ellipse cx="32" cy="58" rx="14" ry="3" class="shadow"/>
    <rect x="22" y="48" width="8" height="10" class="boot"/>
    <rect x="34" y="48" width="8" height="10" class="boot"/>
    <path d="M14 22 Q14 48 16 58 L48 58 Q50 48 50 22 L42 18 L22 18 Z" class="robe"/>
    <rect x="14" y="56" width="36" height="2" class="trim"/>
    <rect x="28" y="26" width="8" height="18" class="cross"/>
    <rect x="24" y="30" width="16" height="8" class="cross"/>
    <ellipse cx="32" cy="6" rx="14" ry="3" class="halo"/>
    <circle cx="32" cy="14" r="9" class="skin"/>
    <rect x="22" y="11" width="20" height="3" class="trim"/>
    <circle cx="28" cy="16" r="1.2" class="eye"/>
    <circle cx="36" cy="16" r="1.2" class="eye"/>
    <rect x="48" y="14" width="2.5" height="40" class="staff"/>
    <circle cx="49" cy="12" r="4" class="gem"/>
    <circle cx="49" cy="12" r="8" class="glow"/>
    <rect x="18" y="40" width="28" height="3" fill="#8a5e18" stroke="#3a2208" stroke-width="0.6"/>
  </g>
  <g transform="translate(192,128)">
    <ellipse cx="32" cy="58" rx="14" ry="3" class="shadow"/>
    <rect x="22" y="46" width="8" height="10" class="boot"/>
    <rect x="34" y="50" width="8" height="10" class="boot"/>
    <path d="M14 22 Q14 48 16 58 L48 58 Q50 48 50 22 L42 18 L22 18 Z" class="robe"/>
    <rect x="14" y="56" width="36" height="2" class="trim"/>
    <rect x="28" y="26" width="8" height="18" class="cross"/>
    <rect x="24" y="30" width="16" height="8" class="cross"/>
    <ellipse cx="32" cy="6" rx="14" ry="3" class="halo"/>
    <circle cx="32" cy="14" r="9" class="skin"/>
    <rect x="22" y="11" width="20" height="3" class="trim"/>
    <circle cx="28" cy="16" r="1.2" class="eye"/>
    <circle cx="36" cy="16" r="1.2" class="eye"/>
    <rect x="48" y="14" width="2.5" height="40" class="staff"/>
    <circle cx="49" cy="12" r="4" class="gem"/>
    <circle cx="49" cy="12" r="8" class="glow"/>
    <rect x="18" y="40" width="28" height="3" fill="#8a5e18" stroke="#3a2208" stroke-width="0.6"/>
  </g>

  <!-- ============ ROW 3 : WALK RIGHT (镜像 row 1) ============ -->
  <g transform="translate(0,192)">
    <ellipse cx="32" cy="58" rx="13" ry="3" class="shadow"/>
    <rect x="31" y="48" width="7" height="10" class="boot"/>
    <rect x="25" y="46" width="7" height="12" class="boot"/>
    <path d="M42 22 Q46 48 44 58 L20 58 Q20 48 20 22 Q24 14 32 14 Q40 14 42 22 Z" class="robe"/>
    <rect x="20" y="56" width="24" height="2" class="trim"/>
    <circle cx="36" cy="14" r="9" class="skin"/>
    <ellipse cx="36" cy="10" rx="10" ry="4" class="trim"/>
    <rect x="52" y="18" width="2.5" height="40" class="staff" transform="rotate(10 53 38)"/>
    <circle cx="58" cy="16" r="3.5" class="gem"/>
    <circle cx="40" cy="15" r="1.2" class="eye"/>
  </g>
  <g transform="translate(64,192)">
    <ellipse cx="32" cy="58" rx="13" ry="3" class="shadow"/>
    <rect x="33" y="46" width="7" height="12" class="boot"/>
    <rect x="23" y="50" width="7" height="10" class="boot"/>
    <path d="M42 22 Q46 48 44 58 L20 58 Q20 48 20 22 Q24 14 32 14 Q40 14 42 22 Z" class="robe"/>
    <rect x="20" y="56" width="24" height="2" class="trim"/>
    <circle cx="36" cy="14" r="9" class="skin"/>
    <ellipse cx="36" cy="10" rx="10" ry="4" class="trim"/>
    <rect x="52" y="18" width="2.5" height="40" class="staff" transform="rotate(10 53 38)"/>
    <circle cx="58" cy="16" r="3.5" class="gem"/>
    <circle cx="40" cy="15" r="1.2" class="eye"/>
  </g>
  <g transform="translate(128,192)">
    <ellipse cx="32" cy="58" rx="13" ry="3" class="shadow"/>
    <rect x="31" y="48" width="7" height="10" class="boot"/>
    <rect x="25" y="46" width="7" height="12" class="boot"/>
    <path d="M42 22 Q46 48 44 58 L20 58 Q20 48 20 22 Q24 14 32 14 Q40 14 42 22 Z" class="robe"/>
    <rect x="20" y="56" width="24" height="2" class="trim"/>
    <circle cx="36" cy="14" r="9" class="skin"/>
    <ellipse cx="36" cy="10" rx="10" ry="4" class="trim"/>
    <rect x="52" y="18" width="2.5" height="40" class="staff" transform="rotate(10 53 38)"/>
    <circle cx="58" cy="16" r="3.5" class="gem"/>
    <circle cx="40" cy="15" r="1.2" class="eye"/>
  </g>
  <g transform="translate(192,192)">
    <ellipse cx="32" cy="58" rx="13" ry="3" class="shadow"/>
    <rect x="33" y="46" width="7" height="12" class="boot"/>
    <rect x="23" y="50" width="7" height="10" class="boot"/>
    <path d="M42 22 Q46 48 44 58 L20 58 Q20 48 20 22 Q24 14 32 14 Q40 14 42 22 Z" class="robe"/>
    <rect x="20" y="56" width="24" height="2" class="trim"/>
    <circle cx="36" cy="14" r="9" class="skin"/>
    <ellipse cx="36" cy="10" rx="10" ry="4" class="trim"/>
    <rect x="52" y="18" width="2.5" height="40" class="staff" transform="rotate(10 53 38)"/>
    <circle cx="58" cy="16" r="3.5" class="gem"/>
    <circle cx="40" cy="15" r="1.2" class="eye"/>
  </g>

  <!-- ============ ROW 4 : CAST HEAL (attack row, 3 frames + empty) ============ -->
  <!-- frame 0 : staff lifted, gem charging -->
  <g transform="translate(0,256)">
    <ellipse cx="32" cy="58" rx="14" ry="3" class="shadow"/>
    <rect x="22" y="48" width="8" height="10" class="boot"/>
    <rect x="34" y="48" width="8" height="10" class="boot"/>
    <path d="M14 22 Q14 48 16 58 L48 58 Q50 48 50 22 L42 18 L22 18 Z" class="robe"/>
    <rect x="14" y="56" width="36" height="2" class="trim"/>
    <rect x="28" y="26" width="8" height="18" class="cross"/>
    <rect x="24" y="30" width="16" height="8" class="cross"/>
    <circle cx="32" cy="14" r="9" class="skin"/>
    <rect x="22" y="11" width="20" height="3" class="trim"/>
    <circle cx="28" cy="16" r="1.2" class="eye"/>
    <circle cx="36" cy="16" r="1.2" class="eye"/>
    <!-- staff raised above head -->
    <rect x="30.5" y="-4" width="3" height="30" class="staff"/>
    <circle cx="32" cy="-6" r="5" class="gem"/>
    <circle cx="32" cy="-6" r="9" class="glow"/>
    <!-- charge particles gathering -->
    <circle cx="22" cy="-2" r="1.2" fill="#fff4c8"/>
    <circle cx="42" cy="-2" r="1.2" fill="#fff4c8"/>
  </g>
  <!-- frame 1 : beam released, halo at gem bright -->
  <g transform="translate(64,256)">
    <ellipse cx="32" cy="58" rx="14" ry="3" class="shadow"/>
    <rect x="22" y="48" width="8" height="10" class="boot"/>
    <rect x="34" y="48" width="8" height="10" class="boot"/>
    <path d="M14 22 Q14 48 16 58 L48 58 Q50 48 50 22 L42 18 L22 18 Z" class="robe"/>
    <rect x="14" y="56" width="36" height="2" class="trim"/>
    <rect x="28" y="26" width="8" height="18" class="cross"/>
    <rect x="24" y="30" width="16" height="8" class="cross"/>
    <circle cx="32" cy="14" r="9" class="skin"/>
    <rect x="22" y="11" width="20" height="3" class="trim"/>
    <circle cx="28" cy="16" r="1.2" class="eye"/>
    <circle cx="36" cy="16" r="1.2" class="eye"/>
    <rect x="30.5" y="-4" width="3" height="30" class="staff"/>
    <circle cx="32" cy="-6" r="7" class="gem"/>
    <circle cx="32" cy="-6" r="14" class="glow"/>
    <!-- holy beam straight down -->
    <rect x="28" y="20" width="8" height="38" fill="#fff4c8" opacity="0.85"/>
    <rect x="30" y="20" width="4" height="38" fill="#ffffff"/>
    <!-- radial rays -->
    <line x1="32" y1="-6" x2="16" y2="-14" stroke="#fff4c8" stroke-width="2" opacity="0.85"/>
    <line x1="32" y1="-6" x2="48" y2="-14" stroke="#fff4c8" stroke-width="2" opacity="0.85"/>
    <line x1="32" y1="-6" x2="32" y2="-22" stroke="#fff4c8" stroke-width="2" opacity="0.85"/>
  </g>
  <!-- frame 2 : recovery, small glow dissipating -->
  <g transform="translate(128,256)">
    <ellipse cx="32" cy="58" rx="14" ry="3" class="shadow"/>
    <rect x="22" y="48" width="8" height="10" class="boot"/>
    <rect x="34" y="48" width="8" height="10" class="boot"/>
    <path d="M14 22 Q14 48 16 58 L48 58 Q50 48 50 22 L42 18 L22 18 Z" class="robe"/>
    <rect x="14" y="56" width="36" height="2" class="trim"/>
    <rect x="28" y="26" width="8" height="18" class="cross"/>
    <rect x="24" y="30" width="16" height="8" class="cross"/>
    <circle cx="32" cy="14" r="9" class="skin"/>
    <rect x="22" y="11" width="20" height="3" class="trim"/>
    <circle cx="28" cy="16" r="1.2" class="eye"/>
    <circle cx="36" cy="16" r="1.2" class="eye"/>
    <!-- staff lowered angled -->
    <rect x="46" y="16" width="2.5" height="32" class="staff" transform="rotate(15 47 32)"/>
    <circle cx="52" cy="14" r="4" class="gem"/>
    <!-- lingering green heal numbers -->
    <text x="32" y="4" font-family='Arial,sans-serif' font-size="10" font-weight="900" fill="#4a9a3a" text-anchor="middle" style="paint-order:stroke;stroke:#1e3a14;stroke-width:1.5px;">+HP</text>
    <!-- cross sparkles -->
    <g fill="#4a9a3a" opacity="0.8">
      <circle cx="18" cy="8" r="1.2"/>
      <circle cx="46" cy="8" r="1.2"/>
    </g>
  </g>
  <!-- empty frame 3 -->
  <g transform="translate(192,256)"></g>

  <!-- ============ ROW 5 : DEATH (3 frames + empty) ============ -->
  <g transform="translate(0,320)">
    <ellipse cx="32" cy="58" rx="14" ry="3" class="shadow"/>
    <rect x="22" y="48" width="8" height="10" class="boot"/>
    <rect x="34" y="48" width="8" height="10" class="boot"/>
    <g transform="rotate(-12 32 48)">
      <path d="M14 22 Q14 48 16 58 L48 58 Q50 48 50 22 L42 18 L22 18 Z" class="robe"/>
      <rect x="14" y="56" width="36" height="2" class="trim"/>
      <rect x="28" y="26" width="8" height="18" class="cross"/>
      <rect x="24" y="30" width="16" height="8" class="cross"/>
      <circle cx="32" cy="14" r="9" class="skin"/>
      <rect x="22" y="11" width="20" height="3" class="trim"/>
    </g>
    <!-- staff dropping -->
    <rect x="48" y="30" width="2.5" height="24" class="staff" transform="rotate(35 49 42)"/>
    <circle cx="58" cy="40" r="3" class="gem"/>
    <!-- impact -->
    <polygon points="36,22 40,14 44,22 50,22 42,26 46,34 36,28 30,34 34,26 26,22" fill="#ff3a1a" opacity="0.85"/>
  </g>
  <g transform="translate(64,320)">
    <ellipse cx="32" cy="58" rx="18" ry="4" class="shadow"/>
    <g transform="translate(0,6) rotate(-45 32 48)">
      <path d="M14 22 Q14 48 16 58 L48 58 Q50 48 50 22 L42 18 L22 18 Z" class="robe"/>
      <rect x="14" y="56" width="36" height="2" class="trim"/>
      <rect x="28" y="26" width="8" height="18" class="cross"/>
      <rect x="24" y="30" width="16" height="8" class="cross"/>
      <circle cx="32" cy="14" r="9" class="skin"/>
      <rect x="22" y="11" width="20" height="3" class="trim"/>
    </g>
    <rect x="46" y="44" width="2.5" height="20" class="staff" transform="rotate(70 47 54)"/>
    <circle cx="56" cy="50" r="3" class="gem" opacity="0.7"/>
    <!-- rising holy light (ascension) -->
    <circle cx="24" cy="36" r="4" class="glow"/>
    <circle cx="44" cy="40" r="5" class="glow"/>
  </g>
  <g transform="translate(128,320)">
    <ellipse cx="32" cy="58" rx="22" ry="5" class="shadow"/>
    <!-- robe on ground (very tilted) -->
    <g transform="translate(-2,14) rotate(-85 32 48)" opacity="0.8">
      <path d="M14 22 Q14 48 16 58 L48 58 Q50 48 50 22 L42 18 L22 18 Z" class="robe"/>
      <rect x="28" y="26" width="8" height="18" class="cross"/>
      <rect x="24" y="30" width="16" height="8" class="cross"/>
      <circle cx="32" cy="14" r="9" class="skin"/>
    </g>
    <!-- holy light pillar rising -->
    <rect x="28" y="0" width="8" height="56" fill="#fff4c8" opacity="0.75"/>
    <rect x="30" y="0" width="4" height="56" fill="#ffffff" opacity="0.85"/>
    <!-- ascension particles -->
    <g fill="#fff4c8">
      <circle cx="22" cy="10" r="1.5"/>
      <circle cx="42" cy="18" r="1.5"/>
      <circle cx="32" cy="4" r="2"/>
      <circle cx="20" cy="30" r="1.2"/>
      <circle cx="44" cy="38" r="1.2"/>
    </g>
    <!-- green cross fading into light -->
    <rect x="28" y="16" width="8" height="14" class="cross" opacity="0.5"/>
    <rect x="24" y="20" width="16" height="6" class="cross" opacity="0.5"/>
  </g>
  <g transform="translate(192,320)"></g>
</svg>
